/vscmnt/brussel_pixiu_data/_data_brussel/112/vsc11236/PredSimResults/SUBJ07mtu3D/worker4.mot
version=1
nRows=9
nColumns=50
inDegrees=yes
endheader
                time	         pelvis_tilt	         pelvis_list	     pelvis_rotation	           pelvis_tx	           pelvis_ty	           pelvis_tz	       hip_flexion_r	     hip_adduction_r	      hip_rotation_r	        knee_angle_r	       ankle_angle_r	         mtp_angle_r	       hip_flexion_l	     hip_adduction_l	      hip_rotation_l	        knee_angle_l	       ankle_angle_l	         mtp_angle_l	    lumbar_extension	      lumbar_bending	     lumbar_rotation	 ercspn_r/activation	 intobl_r/activation	 extobl_r/activation	    abd_r/activation	    add_r/activation	hamstrings_r/activation	bifemsh_r/activation	glut_max_r/activation	iliopsoas_r/activation	rect_fem_r/activation	  vasti_r/activation	gastroc_r/activation	 soleus_r/activation	tib_ant_r/activation	 ercspn_l/activation	 intobl_l/activation	 extobl_l/activation	    abd_l/activation	    add_l/activation	hamstrings_l/activation	bifemsh_l/activation	glut_max_l/activation	iliopsoas_l/activation	rect_fem_l/activation	  vasti_l/activation	gastroc_l/activation	 soleus_l/activation	tib_ant_l/activation	
          0.00000000	         -3.84382035	          0.05212465	          8.12659108	          0.00000000	          0.85058522	         -0.01324082	         30.28675290	         -2.17297359	         -4.08859764	         -8.22814599	          4.67825689	          0.26518282	        -14.43642645	          0.63243143	          3.86414449	         -9.11428796	          8.43780426	         27.08119212	        -10.28099832	         -1.57130823	         -1.79048723	          0.12538643	          0.14139591	          0.01000722	          0.02436061	          0.12994066	          0.05859222	          0.07239130	          0.08032909	          0.02310537	          0.01183674	          0.01000645	          0.01000301	          0.01000089	          0.37300674	          0.13933461	          0.01000173	          0.01000202	          0.03754866	          0.01016954	          0.01527377	          0.13193103	          0.01656397	          0.20237121	          0.01184263	          0.01006715	          0.12427368	          0.27975688	          0.01955346	
          0.01094932	         -3.84270101	          0.11108338	          8.10082625	          0.01567230	          0.84909082	         -0.01307410	         29.95057252	         -1.95090173	         -3.60964854	         -9.46911002	          4.36794993	          0.24779949	        -14.88158198	          0.60459346	          3.49602959	        -10.21443017	          7.52565735	         28.66557031	        -10.15044095	         -1.18086025	         -2.00384086	          0.10603786	          0.12721586	          0.01000263	          0.02060524	          0.10989159	          0.05639818	          0.07298271	          0.12985317	          0.01954007	          0.01001491	          0.01000519	          0.01653764	          0.01183546	          0.39399430	          0.15624596	          0.01000118	          0.01000876	          0.03175404	          0.02119108	          0.01313411	          0.11157417	          0.01400852	          0.17114586	          0.01001994	          0.01000259	          0.10509543	          0.26172434	          0.01653593	
          0.02189863	         -3.83510000	          0.16466476	          8.02569700	          0.03149703	          0.84780036	         -0.01282392	         29.54611055	         -1.77470968	         -3.15265044	        -10.66054028	          4.00478019	          0.24579583	        -15.18699435	          0.58350156	          3.08838166	        -11.58134651	          6.49888483	         30.19725043	        -10.01058344	         -0.78361226	         -2.20708946	          0.14083790	          0.10758441	          0.01000349	          0.10355729	          0.12366752	          0.05095595	          0.07591891	          0.13356144	          0.01652509	          0.01000402	          0.01000091	          0.01398600	          0.01000921	          0.45047004	          0.16758276	          0.01000104	          0.01000418	          0.02685366	          0.01792216	          0.01124196	          0.09435845	          0.01184754	          0.14474039	          0.01007670	          0.01000500	          0.08887672	          0.24007309	          0.01398410	
          0.03284795	         -3.82276937	          0.23245209	          7.90338170	          0.04728393	          0.84687597	         -0.01247655	         29.16317190	         -1.61682684	         -2.78143386	        -11.86290469	          3.55202585	          0.22840225	        -15.27633745	          0.59014829	          2.65002240	        -13.31868007	          5.33001814	         31.61935030	         -9.88284960	         -0.40204785	         -2.39739393	          0.14427549	          0.09098182	          0.01000245	          0.14619347	          0.14642303	          0.04419330	          0.06420745	          0.14887938	          0.01397543	          0.01000617	          0.01399694	          0.01182904	          0.01000255	          0.47386224	          0.20084571	          0.01000090	          0.01000307	          0.02270953	          0.01802653	          0.01143924	          0.07979936	          0.01002158	          0.12240657	          0.01002892	          0.01000635	          0.07516092	          0.20752799	          0.01182614	
          0.04379726	         -3.80610708	          0.30605456	          7.74090495	          0.06290810	          0.84643555	         -0.01203576	         28.85331921	         -1.46310269	         -2.47279631	        -13.21034161	          3.28140132	          0.21130369	        -15.08304704	          0.61386257	          2.18701081	        -15.52112713	          4.04008456	         32.78645599	         -9.77464038	         -0.02940892	         -2.57483077	          0.15157082	          0.07694133	          0.01000228	          0.17877456	          0.16545479	          0.04378932	          0.05430420	          0.16229159	          0.01181972	          0.01000555	          0.04166428	          0.01000830	          0.01000287	          0.48303758	          0.22926509	          0.01000095	          0.01000298	          0.01920495	          0.04258176	          0.01100654	          0.06748754	          0.01000252	          0.10351839	          0.01001189	          0.01000240	          0.06356180	          0.17550161	          0.01000157	
          0.05474658	         -3.78694933	          0.38572716	          7.53960808	          0.07829086	          0.84659157	         -0.01151806	         28.56871824	         -1.31477728	         -2.22376857	        -14.60316511	          3.21236920	          0.19299280	        -14.54521953	          0.65462612	          1.68764189	        -18.27489896	          2.64666021	         33.48913440	         -9.68742030	          0.33204042	         -2.73663037	          0.15206089	          0.06506758	          0.01000207	          0.19760264	          0.18079450	          0.04429618	          0.04593071	          0.16605042	          0.01000460	          0.01000548	          0.07233562	          0.01000881	          0.01000420	          0.46943547	          0.24891142	          0.01000095	          0.01000323	          0.01624121	          0.06840638	          0.01050352	          0.05707630	          0.01000153	          0.08754441	          0.01000810	          0.01000148	          0.05375272	          0.14841736	          0.01000093	
          0.06569589	         -3.76735633	          0.47158951	          7.30001071	          0.09339459	          0.84739774	         -0.01094146	         28.23204366	         -1.16952857	         -2.01881794	        -15.89304241	          3.34119185	          0.17850623	        -13.61916586	          0.70694675	          1.14962629	        -21.62724244	          1.12028109	         33.55889084	         -9.61884491	          0.68085747	         -2.87948922	          0.14618375	          0.05502620	          0.01000209	          0.20152975	          0.18769346	          0.04631082	          0.03885209	          0.16438791	          0.01000397	          0.01000475	          0.09364227	          0.01001102	          0.01000358	          0.44382010	          0.25327950	          0.01000101	          0.01000376	          0.01373487	          0.08936226	          0.01051175	          0.04827290	          0.01000120	          0.07403520	          0.01000600	          0.01000098	          0.04545743	          0.12551282	          0.01000078	
          0.07664521	         -3.74907967	          0.56111895	          7.02321724	          0.10820834	          0.84881358	         -0.01031693	         27.78547623	         -1.02189444	         -1.83299613	        -16.96293545	          3.62302613	          0.17258814	        -12.29506504	          0.75929271	          0.59453245	        -25.53493661	         -0.68513004	         33.00127553	         -9.56596325	          1.01806817	         -3.00096261	          0.12363167	          0.04653443	          0.01000189	          0.19570128	          0.18649489	          0.05360304	          0.03287104	          0.15106491	          0.01000396	          0.01000557	          0.11898422	          0.01000627	          0.01000222	          0.40940724	          0.25758645	          0.01000082	          0.01000280	          0.01161539	          0.10525788	          0.01013992	          0.04082961	          0.01000076	          0.06261058	          0.01000463	          0.01000047	          0.03844232	          0.10614301	          0.01000125	
          0.08759452	         -3.73375022	          0.65263929	          6.70962595	          0.12271577	          0.85074588	         -0.00964336	         27.19156113	         -0.86590183	         -1.63082767	        -17.73159260	          4.01637072	          0.18563691	        -10.59549336	          0.80495424	          0.05967965	        -29.89515062	         -2.80885054	         31.67017844	         -9.52994719	          1.34127108	         -3.10082644	          0.10455280	          0.03935311	          0.01000273	          0.19736155	          0.17393513	          0.06158409	          0.02781733	          0.12775556	          0.01000346	          0.01000337	          0.14037417	          0.01000985	          0.01000251	          0.37059768	          0.24855723	          0.01000144	          0.01000358	          0.01000048	          0.11568687	          0.01660814	          0.03453226	          0.01000177	          0.05294888	          0.01000310	          0.01000056	          0.03250986	          0.08976246	          0.04530215	
